Coordinates
version=1
nRows=8
nColumns=40
inDegrees=yes

Units are S.I. units (second, meters, Newtons, ...)
Angles are in degrees.

endheader
time	pelvis_tilt	pelvis_list	pelvis_rotation	pelvis_tx	pelvis_ty	pelvis_tz	hip_flexion_r	hip_adduction_r	hip_rotation_r	knee_angle_r	knee_angle_r_beta	ankle_angle_r	subtalar_angle_r	mtp_angle_r	hip_flexion_l	hip_adduction_l	hip_rotation_l	knee_angle_l	knee_angle_l_beta	ankle_angle_l	subtalar_angle_l	mtp_angle_l	lumbar_extension	lumbar_bending	lumbar_rotation	arm_flex_r	arm_add_r	arm_rot_r	elbow_flex_r	pro_sup_r	wrist_flex_r	wrist_dev_r	arm_flex_l	arm_add_l	arm_rot_l	elbow_flex_l	pro_sup_l	wrist_flex_l	wrist_dev_l
      0.00000000	     -4.25666874	     -3.03346212	      6.63971661	     -0.82918160	      0.88033466	      1.46174827	     31.01735757	     -2.83924945	    -16.77839512	    -20.58622389	     -0.35929739	      5.74863002	     -4.98696104	      1.19683404	      7.80047449	      2.36419411	      7.50692724	    -27.35845501	     -0.47749512	     15.65258617	      4.83556872	     -3.87884507	     -1.86269395	      1.32116623	    -11.49955626	     -3.28267233	     -8.06460349	    -20.82001881	     24.94268608	     89.95437384	      0.00000000	      0.00000000	      6.50342248	     11.44212651	     14.96912491	     41.91292608	     89.95437384	      0.00000000	      0.00000000
      0.01000000	     -4.42315702	     -2.92750233	      6.84108315	     -0.82282901	      0.87962908	      1.46204098	     31.00937455	     -2.96370464	    -16.97608974	    -20.40395966	     -0.35611628	      5.98872559	     -5.08810067	      1.24076586	      7.48129791	      2.34313529	      7.59847622	    -27.25753717	     -0.47573377	     15.88177668	      4.80438376	     -3.91565913	     -1.56437814	      1.25169377	    -11.69844868	     -3.34419745	     -8.06240426	    -20.88810940	     24.74719018	     89.95437384	      0.00000000	      0.00000000	      6.46017712	     11.41576140	     14.90313104	     41.79531321	     89.95437384	      0.00000000	      0.00000000
      0.02000000	     -4.55576444	     -2.83043442	      7.00702745	     -0.81680993	      0.87880077	      1.46270241	     31.09958344	     -3.04040632	    -16.86172182	    -20.58457158	     -0.35926855	      5.91235967	     -5.00848010	      1.23954733	      7.28867017	      2.35801679	      7.51617566	    -27.44297438	     -0.47897026	     15.70054027	      4.68477191	     -3.87580147	     -1.35553284	      1.13043827	    -11.76210015	     -3.55378356	     -8.01969605	    -20.85398906	     24.82362756	     89.95437384	      0.00000000	      0.00000000	      6.45557871	     11.42276824	     14.86311065	     41.88091472	     89.95437384	      0.00000000	      0.00000000
      0.03000000	     -4.23648640	     -2.85606198	      7.50583910	     -0.81015347	      0.87895288	      1.46280114	     30.36477110	     -3.07019064	    -17.33228246	    -20.41282320	     -0.35627097	      6.13352749	     -5.42988587	      1.77543584	      6.37500799	      2.46321730	      6.96215616	    -27.13112461	     -0.47352745	     15.95243577	      4.55798571	     -4.30137381	     -1.58122800	      1.27135951	    -12.20794902	     -3.37068125	     -7.88933048	    -21.61095174	     24.36456833	     89.95437384	      0.00000000	      0.00000000	      6.51660730	     11.42149531	     14.72859756	     41.65216543	     89.95437384	      0.00000000	      0.00000000
      0.04000000	     -4.41139206	     -2.73171717	      7.64819456	     -0.80404979	      0.87810416	      1.46365670	     30.43889568	     -3.14439439	    -17.12159432	    -20.70136791	     -0.36130703	      5.97946611	     -5.29185775	      1.75480753	      6.27184200	      2.46570227	      6.89226012	    -27.39133805	     -0.47806904	     15.66303402	      4.43692293	     -4.23355960	     -1.37749205	      1.14933626	    -12.23511391	     -3.61968830	     -7.84124718	    -21.52377835	     24.54782039	     89.95437384	      0.00000000	      0.00000000	      6.45986667	     11.42908101	     14.69722601	     41.78764931	     89.95437384	      0.00000000	      0.00000000
      0.05000000	     -4.59366738	     -2.61458626	      7.85173461	     -0.79747847	      0.87725261	      1.46433658	     30.39088762	     -3.23390108	    -17.03826713	    -20.91177017	     -0.36497924	      5.91020349	     -5.26245887	      1.75332968	      6.06958258	      2.48549526	      6.89348527	    -27.53311504	     -0.48054351	     15.57525593	      4.33679005	     -4.20197867	     -1.06484172	      1.04284818	    -12.38224962	     -3.82414130	     -7.80655521	    -21.49561985	     24.59324937	     89.95437384	      0.00000000	      0.00000000	      6.35619877	     11.42109896	     14.63464155	     41.75221016	     89.95437384	      0.00000000	      0.00000000
      0.06000000	     -4.30106198	     -2.60529529	      8.39667459	     -0.79061821	      0.87731867	      1.46464363	     29.61040927	     -3.26846908	    -17.46155237	    -20.92273642	     -0.36517064	      5.84506705	     -5.94532440	      2.18462843	      5.22242804	      2.60489403	      6.37179060	    -27.32650583	     -0.47693750	     15.95862447	      4.07318832	     -4.54257433	     -1.26048029	      1.14393935	    -12.80545286	     -3.70754311	     -7.67100185	    -22.10334225	     24.17393700	     89.95437384	      0.00000000	      0.00000000	      6.45050278	     11.43443177	     14.46598712	     41.32339711	     89.95437384	      0.00000000	      0.00000000
      0.07000000	     -4.49428237	     -2.47962968	      8.54792073	     -0.78415449	      0.87645118	      1.46569226	     29.56709756	     -3.30879144	    -17.18583055	    -21.28103827	     -0.37142419	      5.63093196	     -5.76676998	      2.15704544	      5.12721880	      2.62362176	      6.28951628	    -27.61728951	     -0.48201263	     15.64199696	      3.96846716	     -4.46476300	     -1.00337664	      1.01069752	    -12.80241219	     -3.99220098	     -7.60569973	    -22.01462829	     24.35086473	     89.95437384	      0.00000000	      0.00000000	      6.31985460	     11.41586287	     14.42848354	     41.42917103	     89.95437384	      0.00000000	      0.00000000
